# xmcd CD database file
#
# Track frame offsets:
#	150
#	25729
#	55659
#	98532
#	104428
#	147567
#	159097
#	206426
#	230318
#	260257
#	281720
#	298240
#	330149
#	334249
#	337499
#
# Disc length: 4544 seconds
#
# Revision: 10
# Processed by: cddbd v1.5.2PL0 Copyright (c) Steve Scherf et al.
# Submitted via: CDex 1.51
#
DISCID=d911be0f
DTITLE=Chopin - Piano Sonatas
DYEAR=1998
DGENRE=Classique
TTITLE0=Sonate en Si Bémol Mineur Op.35, N°2 ''Marche Funèbre'' - I. Grave-Doppio Movimento  [Emil Gilels - 1949]
TTITLE1=Sonate en Si Bémol Mineur Op.35, N°2 ''Marche Funèbre'' - II. Scherzo
TTITLE2=Sonate en Si Bémol Mineur Op.35, N°2 ''Marche Funèbre'' - III. Marche Funèbre
TTITLE3=Sonate en Si Bémol Mineur Op.35, N°2 ''Marche Funèbre'' - IV. Presto
TTITLE4=Sonate en Si Mineur Op.58, N°3 - I. Allegro Maestoso  [Sergio Fiorentino - 1994]
TTITLE5=Sonate en Si Mineur Op.58, N°3 - II. Scherzo, Molto Vivace
TTITLE6=Sonate en Si Mineur Op.58, N°3 - III. Largo
TTITLE7=Sonate en Si Mineur Op.58, N°3 - IV. Finale, Presto Non Tanto
TTITLE8=Sonate en Ut Mineur Op.4, N°1 - I. Allegro Maestoso  [Fred Oldenburg - 1998]
TTITLE9=Sonate en Ut Mineur Op.4, N°1 - II. Menuetto
TTITLE10=Sonate en Ut Mineur Op.4, N°1 - III. Larghetto
TTITLE11=Sonate en Ut Mineur Op.4, N°1 - IV. Finale
TTITLE12=Ecossaise en Ré Majeur Op.72, N° 3  [Fred Oldenburg - 1998]
TTITLE13=Ecossaise en Sol Majeur Op.72, N°3
TTITLE14=Ecossaise en Ré Bémol Majeur Op.72, N°3
EXTD=YEAR: 1998
EXTT0=
EXTT1=
EXTT2=
EXTT3=
EXTT4=
EXTT5=
EXTT6=
EXTT7=
EXTT8=
EXTT9=
EXTT10=
EXTT11=
EXTT12=
EXTT13=
EXTT14=
PLAYORDER=
